<svg xmlns="http://www.w3.org/2000/svg" version="1.1" xmlns:xlink="http://www.w3.org/1999/xlink" xmlns:svgjs="http://svgjs.dev/svgjs" width="2000" height="333" viewBox="0 0 2000 333"><g transform="matrix(1,0,0,1,-1.2121212121212466,-1.4403254640643013)"><svg viewBox="0 0 396 66" data-background-color="#ffffff" preserveAspectRatio="xMidYMid meet" height="333" width="2000" xmlns="http://www.w3.org/2000/svg" xmlns:xlink="http://www.w3.org/1999/xlink"><g id="tight-bounds" transform="matrix(1,0,0,1,0.2400000000000091,0.28546991179652537)"><svg viewBox="0 0 395.52 65.42906017640695" height="65.42906017640695" width="395.52"><g><svg viewBox="0 0 494.3300252877398 81.77474962468723" height="65.42906017640695" width="395.52"><g transform="matrix(1,0,0,1,98.81002528773978,4.807308090075061)"><svg viewBox="0 0 395.52 72.16013344453711" height="72.16013344453711" width="395.52"><g id="textblocktransform"><svg viewBox="0 0 395.52 72.16013344453711" height="72.16013344453711" width="395.52" id="textblock"><g><svg viewBox="0 0 395.52 72.16013344453711" height="72.16013344453711" width="395.52"><g transform="matrix(1,0,0,1,0,0)"><svg width="395.52" viewBox="0.55 -43.35 239.78 43.75" height="72.16013344453711" data-palette-color="#000000"><path d="M17.6 0L5.85 0 0.55-43 8.75-43 11.9-13.75 14.7-43 22.9-43 17.6 0ZM35.6 0.4Q30.4 0.4 27.7-2.78 25-5.95 25-11.7L25-11.7 25-32.15Q25-37.7 27.7-40.53 30.4-43.35 35.6-43.35L35.6-43.35Q40.8-43.35 43.5-40.53 46.2-37.7 46.2-32.15L46.2-32.15 46.2-11.7Q46.2-5.9 43.5-2.75 40.8 0.4 35.6 0.4L35.6 0.4ZM35.6-7.5Q36.75-7.5 37.15-8.5 37.55-9.5 37.55-11.3L37.55-11.3 37.55-32.3Q37.55-33.7 37.17-34.58 36.8-35.45 35.65-35.45L35.65-35.45Q33.5-35.45 33.5-32.2L33.5-32.2 33.5-11.25Q33.5-9.4 33.95-8.45 34.4-7.5 35.6-7.5L35.6-7.5ZM62.95 0L54.85 0 54.85-14.15 48-42.95 56.5-42.95 58.9-28.4 61.3-42.95 69.8-42.95 62.95-14.15 62.95 0ZM79.14 0L70.79 0 74.94-42.95 89.49-42.95 93.59 0 85.44 0 84.84-6.95 79.64-6.95 79.14 0ZM81.89-35.65L80.29-13.8 84.19-13.8 82.29-35.65 81.89-35.65ZM105.04 0.4Q100.39 0.4 98.12-2.88 95.84-6.15 95.84-12.8L95.84-12.8 95.84-31.3Q95.84-37.25 98.49-40.3 101.14-43.35 106.39-43.35L106.39-43.35Q110.64-43.35 112.99-41.65 115.34-39.95 116.24-36.7 117.14-33.45 117.14-28.35L117.14-28.35 108.74-28.35 108.74-32.2Q108.74-33.75 108.32-34.6 107.89-35.45 106.79-35.45L106.79-35.45Q104.34-35.45 104.34-32.25L104.34-32.25 104.34-11.45Q104.34-9.5 104.84-8.5 105.34-7.5 106.59-7.5L106.59-7.5Q107.84-7.5 108.34-8.5 108.84-9.5 108.84-11.45L108.84-11.45 108.84-17.6 106.54-17.6 106.54-25 117.04-25 117.04 0 113.59 0 112.14-3.6Q109.84 0.4 105.04 0.4L105.04 0.4ZM138.19 0L120.44 0 120.44-42.95 137.64-42.95 137.64-34.65 129.19-34.65 129.19-26.3 137.29-26.3 137.29-18.2 129.19-18.2 129.19-8.35 138.19-8.35 138.19 0ZM156.74 0L144.99 0 139.69-43 147.89-43 151.04-13.75 153.84-43 162.04-43 156.74 0ZM172.38 0L164.08 0 164.08-42.95 172.38-42.95 172.38 0ZM186.03 0.4Q180.18 0.4 177.58-2.5 174.98-5.4 174.98-11.85L174.98-11.85 174.98-16.05 183.43-16.05 183.43-10.7Q183.43-7.5 185.48-7.5L185.48-7.5Q186.63-7.5 187.08-8.18 187.53-8.85 187.53-10.45L187.53-10.45Q187.53-12.55 187.03-13.93 186.53-15.3 185.76-16.23 184.98-17.15 182.98-19.1L182.98-19.1 179.28-22.8Q174.98-27 174.98-32.1L174.98-32.1Q174.98-37.6 177.51-40.48 180.03-43.35 184.88-43.35L184.88-43.35Q190.68-43.35 193.23-40.28 195.78-37.2 195.78-30.65L195.78-30.65 187.03-30.65 186.98-33.6Q186.98-34.45 186.51-34.95 186.03-35.45 185.18-35.45L185.18-35.45Q184.18-35.45 183.68-34.9 183.18-34.35 183.18-33.4L183.18-33.4Q183.18-31.3 185.58-29.05L185.58-29.05 190.58-24.25Q192.33-22.55 193.48-21.03 194.63-19.5 195.33-17.43 196.03-15.35 196.03-12.5L196.03-12.5Q196.03-6.15 193.71-2.88 191.38 0.4 186.03 0.4L186.03 0.4ZM211.18 0L202.58 0 202.58-34.7 197.48-34.7 197.48-42.95 216.28-42.95 216.28-34.7 211.18-34.7 211.18 0ZM225.88 0L217.53 0 221.68-42.95 236.23-42.95 240.33 0 232.18 0 231.58-6.95 226.38-6.95 225.88 0ZM228.63-35.65L227.03-13.8 230.93-13.8 229.03-35.65 228.63-35.65Z" opacity="1" transform="matrix(1,0,0,1,0,0)" fill="#000000" class="wordmark-text-0" data-fill-palette-color="primary" id="text-0"></path></svg></g></svg></g></svg></g></svg></g><g><svg viewBox="0 0 81.77474962468723 81.77474962468723" height="81.77474962468723" width="81.77474962468723"><g><svg xmlns="http://www.w3.org/2000/svg" xmlns:xlink="http://www.w3.org/1999/xlink" version="1.0" x="0" y="0" viewBox="20 20 60 60" enable-background="new 0 0 100 100" xml:space="preserve" height="81.77474962468723" width="81.77474962468723" class="icon-icon-0" data-fill-palette-color="accent" id="icon-0"><path d="M20 26.667A6.67 6.67 0 0 1 26.667 33.334V63.334C26.667 72.539 34.128 80 43.333 80S60 72.539 60 63.334V40A3.33 3.33 0 0 1 63.333 36.667 3.33 3.33 0 0 1 66.667 40V56.666C66.667 64.023 72.637 70 80 70V63.334A6.67 6.67 0 0 1 73.333 56.666V40C73.333 34.476 68.854 30 63.333 30S53.333 34.476 53.333 40V63.334C53.333 68.857 48.854 73.334 43.333 73.334S33.333 68.857 33.333 63.334V33.334C33.333 25.973 27.363 20 20 20z" fill="#000000" data-fill-palette-color="accent"></path></svg></g></svg></g></svg></g><defs></defs></svg><rect width="395.52" height="65.42906017640695" fill="none" stroke="none" visibility="hidden"></rect></g></svg></g></svg>