<svg xmlns="http://www.w3.org/2000/svg" version="1.1" xmlns:xlink="http://www.w3.org/1999/xlink" xmlns:svgjs="http://svgjs.dev/svgjs" width="2000" height="560" viewBox="0 0 2000 560"><g transform="matrix(1,0,0,1,-1.2121212121212466,-1.3998007845856364)"><svg viewBox="0 0 396 111" data-background-color="#ffffff" preserveAspectRatio="xMidYMid meet" height="560" width="2000" xmlns="http://www.w3.org/2000/svg" xmlns:xlink="http://www.w3.org/1999/xlink"><g id="tight-bounds" transform="matrix(1,0,0,1,0.2400000000000091,0.27746051265893357)"><svg viewBox="0 0 395.52 110.44481822242065" height="110.44481822242065" width="395.52"><g><svg viewBox="0 0 594.0907054359672 165.89360833713857" height="110.44481822242065" width="395.52"><g transform="matrix(1,0,0,1,198.5707054359672,48.342379005879486)"><svg viewBox="0 0 395.52 69.2088503253796" height="69.2088503253796" width="395.52"><g id="textblocktransform"><svg viewBox="0 0 395.52 69.2088503253796" height="69.2088503253796" width="395.52" id="textblock"><g><svg viewBox="0 0 395.52 69.2088503253796" height="69.2088503253796" width="395.52"><g transform="matrix(1,0,0,1,0,0)"><svg width="395.52" viewBox="-0.25 -35.65 276.57 48.4" height="69.2088503253796" data-palette-color="#000000"><path d="M24.2-34.15L24.2-35 31.5-35 31.5-34.5Q29-32.55 24.8-19.95L24.8-19.95Q19.55-3.4 18.6 0.05L18.6 0.05 12.5 0.65Q12.5-1 9.3-10.7L9.3-10.7Q2-32.95-0.25-34.5L-0.25-34.5-0.25-35 7.9-35 7.9-34.15Q7.9-31.5 9.95-24.9L9.95-24.9 16.5-3.75Q20.95-19.1 21.35-20.63 21.75-22.15 22.25-23.9L22.25-23.9Q23.5-28.3 23.8-30.03 24.1-31.75 24.2-34.15L24.2-34.15ZM42.7 0.6Q37.45 0.6 34.4-2.73 31.35-6.05 31.35-11.43 31.35-16.8 34.9-20.7 38.45-24.6 43.82-24.6 49.2-24.6 52.12-21.35 55.05-18.1 55.05-12.65 55.05-7.2 51.5-3.3 47.95 0.6 42.7 0.6ZM49.75-11.4L49.75-11.4Q49.75-16.35 48.2-19.05 46.65-21.75 42.7-21.75L42.7-21.75Q40.15-21.75 38.7-20.65L38.7-20.65Q37.8-19.5 37.22-17.15 36.65-14.8 36.65-12.65L36.65-12.65Q36.65-2.2 44.05-2.2L44.05-2.2Q46.35-2.2 47.8-3.25L47.8-3.25Q48.75-4.4 49.25-6.8 49.75-9.2 49.75-11.4ZM69.95-4.6L69.95-4.6Q74.75-19.25 74.75-22L74.75-22Q74.75-22.85 74.4-23.4L74.4-23.4 74.4-24 79.75-24 79.75-23.4Q79-22.75 71.59-0.5L71.59-0.5Q68.05 9.9 67.55 11.9L67.55 11.9 67.55 12.3 61.35 12.75 61.3 12.4Q64.95 8.05 67.7 0.7L67.7 0.7Q67.4-0.15 59.05-19.9L59.05-19.9Q58.05-22.25 56.9-23.2L56.9-23.2 56.9-23.8 63.6-24.35 63.6-23.75Q63.6-22.45 64.8-18.73 66-15 69.95-4.6ZM96.24-5.3L96.24-10Q94.19-10.75 91.52-10.75 88.84-10.75 87.64-9.9L87.64-9.9Q86.89-8.75 86.89-6.83 86.89-4.9 87.94-3.8 88.99-2.7 90.57-2.7 92.14-2.7 93.79-3.53 95.44-4.35 96.24-5.3L96.24-5.3ZM97.04-2.8L97.04-2.8Q93.99 0.55 90.17 0.55 86.34 0.55 84.17-1.1 81.99-2.75 81.99-6.43 81.99-10.1 84.57-11.7 87.14-13.3 91.84-13.3L91.84-13.3 96.24-13.15 96.24-16Q96.24-18.65 94.94-20.3 93.64-21.95 90.99-21.95L90.99-21.95Q89.04-21.9 84.74-18.2L84.74-18.2Q83.29-20.05 82.69-23L82.69-23Q87.64-24.6 91.79-24.6 95.94-24.6 98.44-22.45 100.94-20.3 100.94-16.35L100.94-16.35 100.94-7.95Q100.99-5.7 101.67-3.78 102.34-1.85 103.44-1.1L103.44-1.1 103.54-0.6 98.19 0.7Q97.54-0.9 97.04-2.8ZM115.24-7.85Q114.19-7.3 113.49-6.6 112.79-5.9 112.79-5.48 112.79-5.05 112.99-4.8 113.19-4.55 113.69-4.35 114.19-4.15 114.69-4.03 115.19-3.9 116.07-3.75 116.94-3.6 117.62-3.5 118.29-3.4 119.44-3.23 120.59-3.05 121.34-2.95L121.34-2.95Q125.79-2.3 127.79-1.1 129.79 0.1 129.79 2.95L129.79 2.95Q129.79 7 126.04 9.2 122.29 11.4 117.09 11.4L117.09 11.4Q113.34 11.4 110.24 10.2L110.24 10.2Q108.49 9.5 107.44 8.18 106.39 6.85 106.39 4.95L106.39 4.95Q106.39 1 111.04-0.95L111.04-0.95Q108.54-2 108.54-4.17 108.54-6.35 112.79-8.65L112.79-8.65Q108.39-10.9 108.39-16L108.39-16Q108.39-20 111.04-22.23 113.69-24.45 117.49-24.45 121.29-24.45 123.59-23.15L123.59-23.15Q125.39-23.15 129.49-23.55L129.49-23.55 130.84-20.7 126.29-20.8Q127.59-18.85 127.59-16.2L127.59-16.2Q127.59-12.15 124.94-9.85 122.29-7.55 118.09-7.55L118.09-7.55Q116.59-7.55 115.24-7.85L115.24-7.85ZM113.04-0.05L113.04-0.05Q109.59 1.2 109.59 3.9 109.59 6.6 112.34 7.93 115.09 9.25 118.29 9.25L118.29 9.25Q122.19 9.25 124.29 7.5L124.29 7.5Q125.54 6.5 125.54 4.95L125.54 4.95Q125.54 3.65 124.39 2.75L124.39 2.75Q123.39 1.95 118.64 1.1L118.64 1.1Q117.64 0.9 115.62 0.48 113.59 0.05 113.04-0.05ZM114.04-12.85L114.04-12.85Q115.34-10.05 118.39-10.05L118.39-10.05Q120.49-10.05 121.29-10.75L121.29-10.75Q122.69-12.35 122.69-15.68 122.69-19 121.64-20.48 120.59-21.95 118.19-21.95 115.79-21.95 114.64-21.3L114.64-21.3Q113.29-19.45 113.29-16.93 113.29-14.4 114.04-12.85ZM144.19 0.55L144.19 0.55Q138.94 0.55 135.99-2.7 133.04-5.95 133.04-11.28 133.04-16.6 136.34-20.6 139.64-24.6 144.54-24.6L144.54-24.6Q153.49-24.6 153.49-13.55L153.49-13.55 151.64-11.75 138.34-11.75Q138.34-7.55 140.14-5.45 141.94-3.35 144.99-3.35L144.99-3.35Q146.19-3.35 148.39-4.08 150.59-4.8 152.29-5.8L152.29-5.8 153.54-3.9Q152.59-2.95 149.41-1.2 146.24 0.55 144.19 0.55ZM143.64-22.1L143.64-22.1Q141.54-22.1 140.39-21.15L140.39-21.15Q139.44-19.85 138.89-17.85 138.34-15.85 138.34-14.35L138.34-14.35 148.59-14.75Q148.59-22.1 143.64-22.1ZM190.98-34.15L190.98-35 198.28-35 198.28-34.5Q195.78-32.55 191.58-19.95L191.58-19.95Q186.33-3.4 185.38 0.05L185.38 0.05 179.28 0.65Q179.28-1 176.08-10.7L176.08-10.7Q168.78-32.95 166.53-34.5L166.53-34.5 166.53-35 174.68-35 174.68-34.15Q174.68-31.5 176.73-24.9L176.73-24.9 183.28-3.75Q187.73-19.1 188.13-20.63 188.53-22.15 189.03-23.9L189.03-23.9Q190.28-28.3 190.58-30.03 190.88-31.75 190.98-34.15L190.98-34.15ZM202.78-6.95L202.78-6.95 202.78-16.65Q202.78-21.1 200.28-22.85L200.28-22.85 200.28-23.45 207.33-24.65 207.63-24.15Q207.48-22.7 207.48-20L207.48-20 207.48-8.2Q207.48-3.2 208.73-0.35L208.73-0.35 208.73 0 201.98 0 201.98-0.35Q202.78-2.7 202.78-6.95ZM206.98-35.4L206.98-35.4Q207.68-34.8 207.68-32.5L207.68-32.5Q207.68-31.95 207.63-31.5L207.63-31.5 207.23-31.15Q205.23-30.6 202.48-30.35L202.48-30.35 202.03-30.55Q201.28-31.85 201.28-34L201.28-34Q201.28-34.25 201.28-34.5L201.28-34.5 201.68-34.85Q204.08-35.65 206.28-35.65L206.28-35.65Q206.53-35.65 206.98-35.4ZM219.23-21.45L219.23-21.45Q218.33-20.55 218.33-18.98 218.33-17.4 219.33-16.53 220.33-15.65 221.85-15.25 223.38-14.85 225.13-14.25 226.88-13.65 228.4-12.98 229.93-12.3 230.93-10.8 231.93-9.3 231.93-7.15L231.93-7.15Q231.93-3.35 229.13-1.4 226.33 0.55 221.75 0.55 217.18 0.55 213.63-1.8L213.63-1.8Q213.78-4.35 215.13-6.35L215.13-6.35Q219.63-2.25 223.33-2.25L223.33-2.25Q224.93-2.25 226.18-2.9L226.18-2.9Q227.38-3.95 227.38-5.73 227.38-7.5 226-8.47 224.63-9.45 222.68-10 220.73-10.55 218.78-11.25 216.83-11.95 215.45-13.45 214.08-14.95 214.08-17.35L214.08-17.35Q214.08-20.85 216.7-22.73 219.33-24.6 223.33-24.6 227.33-24.6 231.18-22.9L231.18-22.9Q230.73-20.7 229.43-18.5L229.43-18.5Q225.88-22.05 222.03-22.05L222.03-22.05Q220.38-22.05 219.23-21.45ZM244.18-21.2L244.18-5.6Q244.18-2.95 245.78-2.95L245.78-2.95Q247.13-2.95 250.33-4.55L250.33-4.55 251.38-2.8Q249.78-1.7 247.38-0.58 244.98 0.55 242.98 0.55 240.98 0.55 240.23-0.7 239.48-1.95 239.48-4.3L239.48-4.3 239.48-21.15 234.98-20.9 236.18-24.15Q237.08-24.05 239.38-23.95L239.38-23.95Q239.28-26.45 239.08-28.45L239.08-28.45 244.18-29.75 244.18-24Q246.88-24.1 251.53-24.6L251.53-24.6 250.13-20.7Q247.43-21.1 244.18-21.2L244.18-21.2ZM269.02-5.3L269.02-10Q266.97-10.75 264.3-10.75 261.62-10.75 260.42-9.9L260.42-9.9Q259.67-8.75 259.67-6.83 259.67-4.9 260.72-3.8 261.77-2.7 263.35-2.7 264.92-2.7 266.57-3.53 268.22-4.35 269.02-5.3L269.02-5.3ZM269.82-2.8L269.82-2.8Q266.77 0.55 262.95 0.55 259.12 0.55 256.95-1.1 254.77-2.75 254.77-6.43 254.77-10.1 257.35-11.7 259.92-13.3 264.62-13.3L264.62-13.3 269.02-13.15 269.02-16Q269.02-18.65 267.72-20.3 266.42-21.95 263.77-21.95L263.77-21.95Q261.82-21.9 257.52-18.2L257.52-18.2Q256.07-20.05 255.47-23L255.47-23Q260.42-24.6 264.57-24.6 268.72-24.6 271.22-22.45 273.72-20.3 273.72-16.35L273.72-16.35 273.72-7.95Q273.77-5.7 274.45-3.78 275.12-1.85 276.22-1.1L276.22-1.1 276.32-0.6 270.97 0.7Q270.32-0.9 269.82-2.8Z" opacity="1" transform="matrix(1,0,0,1,0,0)" fill="#000000" class="wordmark-text-0" data-fill-palette-color="primary" id="text-0"></path></svg></g></svg></g></svg></g></svg></g><g><svg viewBox="0 0 165.89360833713857 165.89360833713857" height="165.89360833713857" width="165.89360833713857"><g><svg></svg></g><g id="icon-0"><svg viewBox="0 0 165.89360833713857 165.89360833713857" height="165.89360833713857" width="165.89360833713857"><g><path d="M0 82.947c0-45.81 37.137-82.947 82.947-82.947 45.81 0 82.947 37.137 82.947 82.947 0 45.81-37.137 82.947-82.947 82.947-45.81 0-82.947-37.137-82.947-82.947zM82.947 159.652c42.363 0 76.705-34.342 76.705-76.705 0-42.363-34.342-76.705-76.705-76.706-42.363 0-76.705 34.342-76.706 76.706 0 42.363 34.342 76.705 76.706 76.705z" data-fill-palette-color="accent" fill="#000000" stroke="transparent"></path></g><g transform="matrix(1,0,0,1,36.97203905813248,37.34979368983581)"><svg viewBox="0 0 91.94953022087361 91.19402095746695" height="91.19402095746695" width="91.94953022087361"><g><svg xmlns="http://www.w3.org/2000/svg" data-name="Layer 1" viewBox="4.41 4.350459969547412 23.18 22.989540030452588" x="0" y="0" height="91.19402095746695" width="91.94953022087361" class="icon-dxe-0" data-fill-palette-color="accent" id="dxe-0"><path d="M8.76 23.44A5.3 5.3 0 0 0 8.76 24.36 0.72 0.72 0 0 1 8.13 25.16H8A0.71 0.71 0 0 1 7.29 24.52 5.5 5.5 0 0 1 7.29 23.28 0.74 0.74 0 0 1 8.09 22.63 0.72 0.72 0 0 1 8.76 23.44M10.41 21.16A0.72 0.72 0 0 0 10.04 19.76 3.38 3.38 0 0 0 8.04 21.13 0.73 0.73 0 0 0 8.23 22.13 0.75 0.75 0 0 0 8.64 22.25 0.69 0.69 0 0 0 9.25 22 2 2 0 0 1 10.41 21.16M20.85 19A7 7 0 0 1 19.39 20 0.72 0.72 0 0 0 19.05 21 0.74 0.74 0 0 0 19.71 21.41 0.7 0.7 0 0 0 20.02 21.34 8.4 8.4 0 0 0 21.79 20.17 0.72 0.72 0 0 0 21.87 19.17 0.73 0.73 0 0 0 20.85 19M16 20.56A0.71 0.71 0 0 0 15.22 21.21 0.72 0.72 0 0 0 15.87 22H16.66A7.5 7.5 0 0 0 18 21.92 0.72 0.72 0 1 0 17.75 20.5 7.2 7.2 0 0 1 16 20.56M14.07 20.14A10.3 10.3 0 0 0 12.27 19.69 0.74 0.74 0 0 0 11.44 20.3 0.72 0.72 0 0 0 12.05 21.12 9 9 0 0 1 13.61 21.51L13.82 21.58H14.04A0.73 0.73 0 0 0 14.73 21.07 0.72 0.72 0 0 0 14.25 20.17ZM22.67 18.84A0.72 0.72 0 0 0 23.25 18.55 8 8 0 0 0 23.9 17.55 0.73 0.73 0 0 0 22.6 16.9 6 6 0 0 1 22.08 17.71 0.73 0.73 0 0 0 22.23 18.71 0.8 0.8 0 0 0 22.66 18.84ZM24.88 15.44L24.48 15.76 25.93 25.89H6.08L7.84 13.58H21.25A12 12 0 0 1 20.25 12.14H6.59L4.41 27.34H27.59L25.77 14.61C25.28 15.1 24.92 15.4 24.87 15.44ZM20.34 7.79A3.63 3.63 0 0 1 27.59 7.79C27.59 11.41 23.96 14.31 23.96 14.31S20.34 11.41 20.34 7.79M24 9.24A1.45 1.45 0 1 0 22.56 7.79 1.45 1.45 0 0 0 24 9.24" fill="#000000" data-fill-palette-color="accent"></path></svg></g></svg></g></svg></g></svg></g></svg></g><defs></defs></svg><rect width="395.52" height="110.44481822242065" fill="none" stroke="none" visibility="hidden"></rect></g></svg></g></svg>