<svg xmlns="http://www.w3.org/2000/svg" version="1.1" xmlns:xlink="http://www.w3.org/1999/xlink" xmlns:svgjs="http://svgjs.dev/svgjs" width="2000" height="373" viewBox="0 0 2000 373"><g transform="matrix(1,0,0,1,-1.2121212121212466,-0.8408259855892766)"><svg viewBox="0 0 396 74" data-background-color="#ffffff" preserveAspectRatio="xMidYMid meet" height="373" width="2000" xmlns="http://www.w3.org/2000/svg" xmlns:xlink="http://www.w3.org/1999/xlink"><g id="tight-bounds" transform="matrix(1,0,0,1,0.2400000000000091,0.1668126620203907)"><svg viewBox="0 0 395.52 73.66637467595919" height="73.66637467595919" width="395.52"><g><svg viewBox="0 0 505.8239647978157 94.21070416382253" height="73.66637467595919" width="395.52"><g transform="matrix(1,0,0,1,0,13.020437406143344)"><svg viewBox="0 0 395.52 68.16982935153584" height="68.16982935153584" width="395.52"><g id="textblocktransform"><svg viewBox="0 0 395.52 68.16982935153584" height="68.16982935153584" width="395.52" id="textblock"><g><svg viewBox="0 0 395.52 68.16982935153584" height="68.16982935153584" width="395.52"><g transform="matrix(1,0,0,1,0,0)"><svg width="395.52" viewBox="0.42 -31.25 244.14000000000001 42.08" height="68.16982935153584" data-palette-color="#0074d9"><g class="wordmark-text-0" data-fill-palette-color="primary" id="text-0"><path d="M13.06 1.04L12.99 1.04 0.42-31.25 4.58-31.25 11.94-12.43Q12.29-11.53 12.59-10.71 12.88-9.9 13.16-8.82L13.16-8.82Q13.44-9.9 13.73-10.71 14.03-11.53 14.38-12.43L14.38-12.43 21.7-31.25 25.63-31.25 13.06 1.04ZM38.89 0.42L38.89 0.42Q35.87 0.42 33.37-1.04 30.87-2.5 29.39-4.97 27.91-7.43 27.91-10.42L27.91-10.42Q27.91-13.44 29.39-15.89 30.87-18.33 33.37-19.79 35.87-21.25 38.89-21.25L38.89-21.25Q41.94-21.25 44.42-19.79 46.91-18.33 48.38-15.89 49.86-13.44 49.86-10.42L49.86-10.42Q49.86-7.43 48.38-4.97 46.91-2.5 44.42-1.04 41.94 0.42 38.89 0.42ZM38.89-3.13L38.89-3.13Q40.9-3.13 42.53-4.11 44.16-5.1 45.14-6.75 46.11-8.4 46.11-10.42L46.11-10.42Q46.11-12.43 45.14-14.08 44.16-15.73 42.53-16.72 40.9-17.71 38.89-17.71L38.89-17.71Q36.87-17.71 35.24-16.72 33.61-15.73 32.64-14.08 31.66-12.43 31.66-10.42L31.66-10.42Q31.66-8.4 32.64-6.75 33.61-5.1 35.24-4.11 36.87-3.13 38.89-3.13ZM58.26 10.42L54.2 10.42 60.97-3.06 52.15-20.83 56.38-20.83 60.83-11.81Q61.42-10.59 61.97-9.41 62.53-8.23 63.09-6.56L63.09-6.56Q63.68-8.23 64.21-9.43 64.75-10.63 65.38-11.81L65.38-11.81 69.89-20.83 73.88-20.83 58.26 10.42ZM86.56 0.28L86.56 0.28Q83.71 0.28 81.35-1.16 78.99-2.6 77.58-5.03 76.17-7.47 76.17-10.42L76.17-10.42Q76.17-13.37 77.58-15.8 78.99-18.23 81.35-19.67 83.71-21.11 86.56-21.11L86.56-21.11Q88.71-21.11 90.6-20.31 92.49-19.51 93.88-18.09L93.88-18.09 93.88-20.83 97.35-20.83 97.35 0 93.88 0 93.88-2.74Q92.49-1.35 90.6-0.54 88.71 0.28 86.56 0.28ZM87.04-3.13L87.04-3.13Q89.02-3.13 90.63-4.11 92.25-5.1 93.2-6.75 94.16-8.4 94.16-10.42L94.16-10.42Q94.16-12.43 93.2-14.08 92.25-15.73 90.63-16.72 89.02-17.71 87.04-17.71L87.04-17.71Q85.06-17.71 83.45-16.72 81.83-15.73 80.88-14.08 79.92-12.43 79.92-10.42L79.92-10.42Q79.92-8.4 80.88-6.75 81.83-5.1 83.45-4.11 85.06-3.13 87.04-3.13ZM112.46 10.83L112.46 10.83Q110.06 10.83 108.1 10.14 106.14 9.44 104.61 8.23L104.61 8.23 105.65 3.99Q106.69 5.49 108.43 6.42 110.16 7.36 112.42 7.36L112.42 7.36Q115.93 7.36 118.1 5.24 120.27 3.13 120.27-0.21L120.27-0.21 120.27-2.74Q118.88-1.35 116.99-0.54 115.09 0.28 112.94 0.28L112.94 0.28Q110.09 0.28 107.73-1.16 105.37-2.6 103.97-5.03 102.56-7.47 102.56-10.42L102.56-10.42Q102.56-13.37 103.97-15.8 105.37-18.23 107.73-19.67 110.09-21.11 112.94-21.11L112.94-21.11Q115.09-21.11 116.99-20.31 118.88-19.51 120.27-18.09L120.27-18.09 120.27-20.83 123.74-20.83 123.74 0Q123.74 3.4 122.16 5.83 120.58 8.26 118.01 9.55 115.44 10.83 112.46 10.83ZM113.43-3.13L113.43-3.13Q115.41-3.13 117.02-4.11 118.64-5.1 119.59-6.75 120.55-8.4 120.55-10.42L120.55-10.42Q120.55-12.43 119.59-14.08 118.64-15.73 117.02-16.72 115.41-17.71 113.43-17.71L113.43-17.71Q111.45-17.71 109.83-16.72 108.22-15.73 107.26-14.08 106.31-12.43 106.31-10.42L106.31-10.42Q106.31-8.4 107.26-6.75 108.22-5.1 109.83-4.11 111.45-3.13 113.43-3.13ZM140.33 0.42L140.33 0.42Q137.07 0.42 134.48-1.04 131.9-2.5 130.42-5.02 128.95-7.53 128.95-10.63L128.95-10.63Q128.95-13.58 130.37-15.99 131.79-18.4 134.21-19.83 136.62-21.25 139.54-21.25L139.54-21.25Q142.42-21.25 144.81-19.88 147.21-18.51 148.63-16.18 150.06-13.85 150.06-10.9L150.06-10.9 150.06-9.38 136.45-9.38Q135.54-9.38 134.61-9.44 133.67-9.51 132.77-9.65L132.77-9.65Q133.15-6.88 135.28-5 137.42-3.13 140.37-3.13L140.37-3.13Q142.35-3.13 144.05-4.03 145.75-4.93 146.79-6.42L146.79-6.42 147.83-2.15Q146.34-0.94 144.41-0.26 142.49 0.42 140.33 0.42ZM132.66-12.19L132.66-12.19Q134.54-12.5 136.45-12.5L136.45-12.5 143.36-12.5Q144.12-12.5 144.87-12.45 145.61-12.4 146.38-12.33L146.38-12.33Q145.89-14.76 143.95-16.34 142-17.92 139.54-17.92L139.54-17.92Q137-17.92 135.09-16.23 133.18-14.55 132.66-12.19ZM164.78 1.04L164.71 1.04 152.14-31.25 156.3-31.25 163.67-12.43Q164.01-11.53 164.31-10.71 164.6-9.9 164.88-8.82L164.88-8.82Q165.16-9.9 165.45-10.71 165.75-11.53 166.1-12.43L166.1-12.43 173.42-31.25 177.35-31.25 164.78 1.04ZM184.84 0L181.09 0 181.09-20.83 184.84-20.83 184.84 0ZM182.97-24.58L182.97-24.58Q181.93-24.58 181.2-25.31 180.47-26.04 180.47-27.08L180.47-27.08Q180.47-28.16 181.2-28.87 181.93-29.58 182.97-29.58L182.97-29.58Q184.05-29.58 184.76-28.87 185.47-28.16 185.47-27.08L185.47-27.08Q185.47-26.04 184.76-25.31 184.05-24.58 182.97-24.58ZM196.89 0.42L196.89 0.42Q195.29 0.42 193.47-0.19 191.65-0.8 190.33-2.22L190.33-2.22 191.37-6.32Q192.34-4.69 193.87-3.73 195.4-2.78 197.13-2.78L197.13-2.78Q198.8-2.78 199.63-3.59 200.47-4.41 200.47-5.59L200.47-5.59Q200.47-6.94 199.58-7.57 198.7-8.19 198-8.44L198-8.44 195.19-9.51Q194.42-9.83 193.35-10.43 192.27-11.04 191.47-12.19 190.67-13.33 190.67-15.17L190.67-15.17Q190.67-16.84 191.47-18.23 192.27-19.62 193.73-20.43 195.19-21.25 197.17-21.25L197.17-21.25Q198.73-21.25 200.43-20.69 202.13-20.14 203.31-18.82L203.31-18.82 202.27-14.72Q201.44-16.25 200.01-17.15 198.59-18.06 197.06-18.06L197.06-18.06Q195.64-18.06 194.82-17.26 194.01-16.46 194.01-15.42L194.01-15.42Q194.01-14.58 194.56-13.92 195.12-13.26 196.23-12.85L196.23-12.85 199.04-11.77Q199.81-11.49 200.93-10.87 202.06-10.24 202.93-9.06 203.8-7.88 203.8-5.87L203.8-5.87Q203.8-3.06 201.84-1.32 199.88 0.42 196.89 0.42ZM215.39 0L211.64 0 211.64-17.71 206.92-17.71 206.92-20.83 211.75-20.83 211.75-27.78 215.29-27.78 215.29-20.83 220.46-20.83 220.46-17.71 215.39-17.71 215.39 0ZM233.76 0.28L233.76 0.28Q230.91 0.28 228.55-1.16 226.19-2.6 224.78-5.03 223.38-7.47 223.38-10.42L223.38-10.42Q223.38-13.37 224.78-15.8 226.19-18.23 228.55-19.67 230.91-21.11 233.76-21.11L233.76-21.11Q235.91-21.11 237.8-20.31 239.7-19.51 241.09-18.09L241.09-18.09 241.09-20.83 244.56-20.83 244.56 0 241.09 0 241.09-2.74Q239.7-1.35 237.8-0.54 235.91 0.28 233.76 0.28ZM234.25-3.13L234.25-3.13Q236.23-3.13 237.84-4.11 239.45-5.1 240.41-6.75 241.36-8.4 241.36-10.42L241.36-10.42Q241.36-12.43 240.41-14.08 239.45-15.73 237.84-16.72 236.23-17.71 234.25-17.71L234.25-17.71Q232.27-17.71 230.65-16.72 229.04-15.73 228.08-14.08 227.13-12.43 227.13-10.42L227.13-10.42Q227.13-8.4 228.08-6.75 229.04-5.1 230.65-4.11 232.27-3.13 234.25-3.13Z" fill="#000000" data-fill-palette-color="primary"></path></g></svg></g></svg></g></svg></g></svg></g><g transform="matrix(1,0,0,1,411.61326063399315,0)"><svg viewBox="0 0 94.21070416382253 94.21070416382253" height="94.21070416382253" width="94.21070416382253"><g><svg xmlns="http://www.w3.org/2000/svg" xmlns:xlink="http://www.w3.org/1999/xlink" version="1.1" x="0" y="0" viewBox="5 4.6 90 90" enable-background="new 0 0 100 100" xml:space="preserve" height="94.21070416382253" width="94.21070416382253" class="icon-icon-0" data-fill-palette-color="accent" id="icon-0"><path d="M50 4.6C25.2 4.6 5 24.8 5 49.6S25.2 94.6 50 94.6 95 74.4 95 49.6 74.8 4.6 50 4.6M66.6 53.3H60L49.7 67.3C49.5 67.6 49.1 67.8 48.7 67.8H48.5C48.1 67.8 47.8 67.6 47.5 67.3 47.3 67 47.2 66.6 47.3 66.3L50.8 53.3H40.7L37.6 57.6C37.4 57.9 37 58.1 36.6 58.1H36.4C36 58.1 35.7 57.9 35.4 57.6 35.2 57.3 35.1 56.9 35.2 56.5L37.5 49.6 35.1 42.7C35 42.3 35.1 41.9 35.3 41.6S35.9 41.1 36.3 41.1H36.5C36.9 41.1 37.3 41.3 37.5 41.6L40.6 45.9H50.7L47.2 32.9C47.1 32.5 47.2 32.2 47.4 31.9S48 31.4 48.4 31.4H48.6C49 31.4 49.4 31.6 49.6 31.9L59.9 45.9H66.5C68.3 45.9 73.8 47.7 73.8 49.5S68.4 53.3 66.6 53.3" fill="#000000" data-fill-palette-color="accent"></path></svg></g></svg></g></svg></g><defs></defs></svg><rect width="395.52" height="73.66637467595919" fill="none" stroke="none" visibility="hidden"></rect></g></svg></g></svg>